<svg xmlns="http://www.w3.org/2000/svg" width="626" height="105" fill="none"><path fill="#fff" d="m23.296 82.432 1.792-4.368 20.384-52.528h15.456v.896l-22.736 56H23.296Zm0 0-22.736-56v-.896h15.456L36.4 78.064l1.792 4.368H23.296ZM65.949 82.432V25.536h15.12v56.896h-15.12Zm7.616-64.064c-2.539 0-4.704-.896-6.496-2.688-1.792-1.792-2.688-3.957-2.688-6.496 0-2.464.896-4.592 2.688-6.384C68.86 1.008 71.026.112 73.565.112c2.464 0 4.592.896 6.384 2.688 1.792 1.792 2.688 3.92 2.688 6.384 0 2.539-.896 4.704-2.688 6.496-1.792 1.792-3.92 2.688-6.384 2.688ZM117.008 84.224c-5.152 0-9.819-1.27-14-3.808-4.182-2.613-7.504-6.16-9.968-10.64-2.39-4.555-3.584-9.781-3.584-15.68 0-5.973 1.194-11.237 3.584-15.792 2.464-4.555 5.786-8.101 9.968-10.64 4.181-2.613 8.848-3.92 14-3.92 4.33 0 8.176.896 11.536 2.688 3.36 1.792 6.122 4.07 8.288 6.832 2.165 2.688 3.621 5.525 4.368 8.512v24.64c-.747 2.912-2.203 5.75-4.368 8.512-2.166 2.688-4.928 4.928-8.288 6.72-3.36 1.717-7.206 2.576-11.536 2.576Zm2.688-13.44c3.061 0 5.712-.71 7.952-2.128 2.24-1.419 3.994-3.397 5.264-5.936 1.269-2.539 1.904-5.45 1.904-8.736 0-3.36-.635-6.272-1.904-8.736-1.27-2.539-3.024-4.517-5.264-5.936-2.24-1.419-4.891-2.128-7.952-2.128-2.987 0-5.638.71-7.952 2.128-2.24 1.419-3.995 3.397-5.264 5.936-1.27 2.464-1.904 5.376-1.904 8.736 0 3.285.634 6.197 1.904 8.736 1.269 2.539 3.024 4.517 5.264 5.936 2.314 1.419 4.965 2.128 7.952 2.128Zm15.792 11.648V66.64l3.36-12.656-4.48-12.656V1.792L149.152 0l.336.896v81.536h-14ZM188.547 84.224c-5.974 0-11.238-1.27-15.792-3.808-4.48-2.539-7.99-6.085-10.528-10.64-2.539-4.555-3.808-9.819-3.808-15.792 0-5.973 1.232-11.237 3.696-15.792 2.538-4.555 6.01-8.101 10.416-10.64 4.405-2.539 9.52-3.808 15.344-3.808 5.749 0 10.752 1.307 15.008 3.92 4.256 2.613 7.578 6.272 9.968 10.976 2.389 4.704 3.584 10.192 3.584 16.464v2.688l-1.68 1.68h-49.616V47.488h45.136l-8.4 3.024c0-2.763-.635-5.19-1.904-7.28-1.195-2.09-2.838-3.696-4.928-4.816-2.016-1.195-4.294-1.792-6.832-1.792-2.838 0-5.376.635-7.616 1.904-2.24 1.195-3.995 2.875-5.264 5.04-1.195 2.09-1.792 4.517-1.792 7.28v5.936c0 2.613.672 5.04 2.016 7.28a16.81 16.81 0 0 0 5.488 5.264 14.688 14.688 0 0 0 7.504 2.016c2.389 0 4.704-.71 6.944-2.128 2.24-1.419 3.994-3.323 5.264-5.712h1.344l12.096 5.04c-2.315 5.077-5.712 8.96-10.192 11.648-4.406 2.688-9.558 4.032-15.456 4.032ZM251.702 84.224c-5.824 0-10.976-1.27-15.456-3.808-4.405-2.613-7.877-6.197-10.416-10.752-2.538-4.555-3.808-9.781-3.808-15.68 0-5.899 1.27-11.125 3.808-15.68 2.539-4.555 6.011-8.101 10.416-10.64 4.48-2.613 9.632-3.92 15.456-3.92 5.825 0 10.939 1.307 15.344 3.92 4.48 2.539 7.99 6.085 10.528 10.64 2.539 4.555 3.808 9.781 3.808 15.68 0 5.899-1.269 11.125-3.808 15.68-2.538 4.555-6.048 8.139-10.528 10.752-4.405 2.539-9.519 3.808-15.344 3.808Zm0-13.328c2.987 0 5.563-.672 7.728-2.016 2.166-1.419 3.846-3.397 5.04-5.936 1.195-2.539 1.792-5.525 1.792-8.96 0-3.435-.597-6.421-1.792-8.96-1.194-2.539-2.874-4.48-5.04-5.824-2.165-1.419-4.741-2.128-7.728-2.128-2.986 0-5.562.71-7.728 2.128-2.165 1.344-3.845 3.285-5.04 5.824-1.194 2.539-1.792 5.525-1.792 8.96 0 3.435.598 6.421 1.792 8.96 1.195 2.539 2.875 4.517 5.04 5.936 2.166 1.344 4.742 2.016 7.728 2.016ZM277.643 104.832V92.736l.56-1.232h3.584c2.762 0 4.778-.635 6.048-1.904 1.269-1.27 1.904-3.285 1.904-6.048V25.536h15.12v58.688c0 6.347-1.755 11.35-5.264 15.008-3.435 3.733-8.102 5.6-14 5.6h-7.952Zm19.712-86.464c-2.539 0-4.704-.896-6.496-2.688-1.792-1.792-2.688-3.957-2.688-6.496 0-2.464.896-4.592 2.688-6.384 1.792-1.792 3.957-2.688 6.496-2.688 2.464 0 4.592.896 6.384 2.688 1.792 1.792 2.688 3.92 2.688 6.384 0 2.539-.896 4.704-2.688 6.496-1.792 1.792-3.92 2.688-6.384 2.688ZM337.438 84.224c-6.347 0-11.798-1.456-16.352-4.368-4.48-2.987-7.467-7.019-8.96-12.096l13.776-3.472 1.344.336c.597 2.09 1.866 3.733 3.808 4.928 2.016 1.195 4.33 1.792 6.944 1.792 2.538 0 4.666-.485 6.384-1.456 1.717-1.045 2.576-2.39 2.576-4.032 0-1.419-.523-2.539-1.568-3.36-1.046-.821-2.614-1.456-4.704-1.904l-10.752-2.352c-5.302-1.195-9.408-3.21-12.32-6.048-2.838-2.912-4.256-6.459-4.256-10.64 0-3.584 1.008-6.683 3.024-9.296 2.016-2.688 4.778-4.779 8.288-6.272 3.584-1.493 7.616-2.24 12.096-2.24 6.048 0 11.162 1.493 15.344 4.48 4.256 2.912 7.056 6.981 8.4 12.208l-12.768 2.8-1.232-.224c-.523-1.867-1.792-3.397-3.808-4.592-1.942-1.195-4.144-1.792-6.608-1.792-2.24 0-4.144.41-5.712 1.232-1.494.821-2.24 1.979-2.24 3.472 0 .97.41 1.904 1.232 2.8.896.821 2.24 1.419 4.032 1.792l10.752 2.464c5.749 1.344 10.117 3.323 13.104 5.936 2.986 2.539 4.48 6.085 4.48 10.64 0 3.883-1.046 7.28-3.136 10.192-2.091 2.912-4.966 5.152-8.624 6.72-3.659 1.568-7.84 2.352-12.544 2.352Z"/><path fill="#00B2FF" d="M465.233 84.224c-4.331 0-8.176-.896-11.536-2.688-3.36-1.792-6.123-4.07-8.288-6.832-2.091-2.763-3.547-5.6-4.368-8.512v-24.64c.821-2.912 2.277-5.712 4.368-8.4 2.165-2.763 4.928-5.003 8.288-6.72 3.36-1.792 7.205-2.688 11.536-2.688 5.227 0 9.893 1.307 14 3.92 4.181 2.539 7.467 6.085 9.856 10.64 2.464 4.48 3.696 9.67 3.696 15.568 0 5.899-1.232 11.163-3.696 15.792-2.389 4.555-5.675 8.139-9.856 10.752-4.107 2.539-8.773 3.808-14 3.808Zm-32.48 20.608V25.536h14v15.792l-3.36 12.656 4.48 12.656v38.192h-15.12Zm29.792-34.048c3.061 0 5.712-.71 7.952-2.128 2.24-1.419 3.995-3.397 5.264-5.936 1.269-2.539 1.904-5.45 1.904-8.736 0-3.36-.635-6.272-1.904-8.736-1.269-2.539-3.024-4.517-5.264-5.936-2.24-1.419-4.891-2.128-7.952-2.128-2.987 0-5.637.71-7.952 2.128-2.24 1.419-3.995 3.397-5.264 5.936-1.269 2.464-1.904 5.376-1.904 8.736 0 3.285.635 6.197 1.904 8.736 1.269 2.539 3.024 4.517 5.264 5.936 2.315 1.419 4.965 2.128 7.952 2.128ZM501.729 82.432V1.792L516.513 0l.336.896v81.536h-15.12ZM535.514 104.832v-.896l9.184-21.504 5.712-12.096 18.032-44.8h15.456v.896l-32.928 78.4h-15.456Zm9.184-22.4-22.288-56v-.896h15.456l20.048 52.528v4.368h-13.216ZM588.892 82.432V25.536h14v13.552l-3.696.784c1.792-4.48 4.518-7.99 8.176-10.528 3.659-2.539 7.878-3.808 12.657-3.808h5.263v13.328h-7.503c-2.838 0-5.302.597-7.393 1.792-2.016 1.195-3.583 2.95-4.703 5.264-1.12 2.24-1.68 4.928-1.68 8.064v28.448h-15.121Z"/><path fill="#fff" fill-opacity=".251" d="M366 50.432a6 6 0 0 1 6-6h47a6 6 0 1 1 0 12h-47a6 6 0 0 1-6-6Z"/><path fill="#00B2FF" d="M366 50.432a6 6 0 0 1 6-6h18a6 6 0 1 1 0 12h-18a6 6 0 0 1-6-6Z"/><path fill="#fff" d="M406 50.432c0 5.523-4.477 10-10 10s-10-4.477-10-10 4.477-10 10-10 10 4.477 10 10Z"/></svg>