<svg width="496" height="153" viewBox="0 0 496 153" fill="none" xmlns="http://www.w3.org/2000/svg">
<path d="M85.51 118.66H0V96.39L55.25 20.91H1.70001V0H83.81V22.27L28.56 97.75H85.51V118.66ZM176.564 118.66C171.294 118.66 167.044 117.47 163.984 114.75C160.754 112.03 158.884 108.29 158.374 103.19H157.524C155.824 108.97 152.764 113.39 148.004 116.28C143.244 119.34 137.634 120.7 130.834 120.7C122.334 120.7 115.364 118.49 110.264 113.9C105.164 109.31 102.614 102.85 102.614 94.52C102.614 85.34 105.844 78.54 112.644 74.12C119.274 69.7 129.134 67.49 142.054 67.49H156.164V63.07C156.164 57.97 154.804 54.06 152.424 51.34C150.044 48.62 145.964 47.26 140.184 47.26C134.744 47.26 130.494 48.28 127.264 50.32C123.864 52.36 121.144 55.08 118.764 58.31L104.994 46.07C107.884 41.14 112.474 37.06 118.764 33.83C125.054 30.6 133.214 28.9 143.074 28.9C154.974 28.9 164.324 31.79 171.124 37.23C177.924 42.67 181.324 51 181.324 62.05V100.47H191.014V118.66H176.564ZM140.354 104.21C144.774 104.21 148.514 103.19 151.574 100.98C154.634 98.94 156.164 95.71 156.164 91.63V81.09H142.734C132.364 81.09 127.264 84.66 127.264 91.46V94.86C127.264 97.92 128.454 100.3 130.834 101.83C133.214 103.53 136.274 104.21 140.354 104.21ZM205.737 30.94H230.897V46.92H232.087C234.127 41.82 237.357 37.4 241.437 34C245.517 30.6 250.957 28.9 258.097 28.9C262.857 28.9 267.277 29.92 271.357 31.62C275.437 33.49 278.837 36.21 281.727 39.95C284.617 43.69 286.827 48.45 288.527 54.23C290.227 60.01 291.077 66.98 291.077 74.8C291.077 82.79 290.227 89.59 288.527 95.37C286.827 101.15 284.617 105.91 281.727 109.65C278.837 113.39 275.437 116.28 271.357 117.98C267.277 119.85 262.857 120.7 258.097 120.7C250.957 120.7 245.517 119.17 241.437 115.77C237.357 112.37 234.127 108.12 232.087 102.68H230.897V152.66H205.737V30.94ZM247.217 101.15C252.827 101.15 257.247 99.45 260.307 96.05C263.367 92.65 264.897 87.72 264.897 81.6V68C264.897 61.88 263.367 57.12 260.307 53.72C257.247 50.32 252.827 48.45 247.217 48.45C242.797 48.45 238.887 49.64 235.657 51.68C232.427 53.89 230.897 57.29 230.897 61.88V87.72C230.897 92.48 232.427 95.88 235.657 97.92C238.887 100.13 242.797 101.15 247.217 101.15ZM307.671 30.94H332.831V46.92H334.021C336.061 41.82 339.291 37.4 343.371 34C347.451 30.6 352.891 28.9 360.031 28.9C364.791 28.9 369.211 29.92 373.291 31.62C377.371 33.49 380.771 36.21 383.661 39.95C386.551 43.69 388.761 48.45 390.461 54.23C392.161 60.01 393.011 66.98 393.011 74.8C393.011 82.79 392.161 89.59 390.461 95.37C388.761 101.15 386.551 105.91 383.661 109.65C380.771 113.39 377.371 116.28 373.291 117.98C369.211 119.85 364.791 120.7 360.031 120.7C352.891 120.7 347.451 119.17 343.371 115.77C339.291 112.37 336.061 108.12 334.021 102.68H332.831V152.66H307.671V30.94ZM349.151 101.15C354.761 101.15 359.181 99.45 362.241 96.05C365.301 92.65 366.831 87.72 366.831 81.6V68C366.831 61.88 365.301 57.12 362.241 53.72C359.181 50.32 354.761 48.45 349.151 48.45C344.731 48.45 340.821 49.64 337.591 51.68C334.361 53.89 332.831 57.29 332.831 61.88V87.72C332.831 92.48 334.361 95.88 337.591 97.92C340.821 100.13 344.731 101.15 349.151 101.15ZM412.154 99.11H432.384V50.49H412.154V30.94H457.544V55.76H458.734C459.414 52.7 460.604 49.64 461.964 46.58C463.324 43.52 465.194 40.97 467.404 38.59C469.614 36.21 472.334 34.34 475.56 32.98C478.62 31.62 482.36 30.94 486.78 30.94H495.11V54.06H476.41C470.124 54.06 465.364 55.93 462.304 59.67C459.074 63.41 457.544 67.83 457.544 73.1V99.11H486.44V118.66H412.154V99.11Z" fill="white"/>
</svg>
